<?xml version="1.0" encoding="UTF-8" standalone="no"?>
<!DOCTYPE svg PUBLIC "-//W3C//DTD SVG 1.1//EN" "http://www.w3.org/Graphics/SVG/1.1/DTD/svg11.dtd">
<svg width="100%" height="100%" viewBox="0 0 150 32" version="1.1" xmlns="http://www.w3.org/2000/svg" xmlns:xlink="http://www.w3.org/1999/xlink" xml:space="preserve" xmlns:serif="http://www.serif.com/" style="fill-rule:evenodd;clip-rule:evenodd;stroke-linejoin:round;stroke-miterlimit:2;">
    <g id="accouter-logo.svg" transform="matrix(0.0625,0,0,0.0625,16,16)">
        <g transform="matrix(1,0,0,1,-256,-256)">
            <path d="M476,146C494.333,201 494.333,311 476,366C459.644,415.069 415.319,459.56 366,476C311,494.333 201,494.333 146,476C96.681,459.56 52.356,415.069 36,366C17.667,311 17.667,201 36,146C52.356,96.931 96.681,52.44 146,36C201,17.667 311,17.667 366,36C415.319,52.44 459.644,96.931 476,146ZM393.746,372.802C393.298,370.115 392.402,366.979 391.506,364.739C390.61,362.051 390.162,361.155 390.162,360.707L296.988,131.355L294.3,124.188C292.956,120.604 291.164,117.917 289.82,113.885C288.477,110.301 287.133,107.166 284.893,103.582C282.653,99.999 280.413,96.863 278.174,94.175C275.934,91.487 273.246,89.696 270.558,88.352C262.047,85.216 249.953,85.216 241.442,88.352C238.754,89.696 236.066,91.487 233.826,94.175C231.587,96.863 228.899,99.999 227.107,103.582C224.867,107.166 223.523,110.301 222.18,113.885C220.836,117.917 219.044,120.604 217.7,124.188L215.012,131.355L121.838,360.707C121.838,361.155 121.39,362.051 120.494,364.739C119.598,366.979 118.702,370.115 118.254,372.802C117.806,376.386 117.358,379.522 117.358,383.553C117.358,387.137 118.254,390.272 120.494,393.408C122.286,396.096 125.422,399.231 129.453,401.023C137.068,405.503 144.684,406.847 153.195,405.503C156.778,404.607 160.81,402.815 164.394,399.679C165.289,398.784 166.185,398.336 166.633,397.44C167.081,396.992 167.977,395.648 168.873,395.2C171.561,392.512 173.353,389.377 174.696,386.689C176.488,384.001 177.832,381.313 179.624,378.178C180.968,375.938 181.864,373.698 182.76,371.458C183.656,369.219 184.103,366.531 184.999,364.291L194.406,342.341C235.17,342.789 276.83,342.341 317.594,342.341L327.001,364.291C327.449,366.531 328.344,369.219 329.24,371.458C329.688,373.698 331.032,375.938 332.376,378.178C334.168,381.313 335.512,384.001 336.856,386.689C338.647,389.377 340.439,392.512 343.127,395.2C344.023,395.648 344.919,396.992 345.367,397.44C345.815,398.336 346.711,398.784 347.606,399.679C351.19,402.815 355.222,404.607 358.805,405.503C367.316,406.847 374.932,405.503 382.547,401.023C386.578,399.231 389.714,396.096 391.506,393.408C393.746,390.272 394.642,387.137 394.642,383.553C394.642,379.522 394.194,376.386 393.746,372.802ZM295.644,282.764L216.356,282.764L224.419,263.054C232.034,246.031 240.098,227.217 249.057,207.955C251.296,202.58 253.984,196.757 255.776,191.381C258.016,196.757 260.704,202.58 262.943,207.955C271.902,227.217 279.966,246.031 287.581,263.054L295.644,282.764Z" style="fill:#0a7a0e;"/>
        </g>
    </g>
    <g transform="matrix(1,0,0,1,1.72731,3.20985)">
        <g transform="matrix(26.4,0,0,24,38.4255,20.0982)">
            <path d="M0.152,-0.252C0.153,-0.191 0.164,-0.148 0.186,-0.121C0.207,-0.094 0.237,-0.081 0.276,-0.081C0.315,-0.081 0.343,-0.096 0.361,-0.127C0.379,-0.157 0.388,-0.198 0.387,-0.251C0.386,-0.305 0.377,-0.348 0.359,-0.38C0.34,-0.411 0.312,-0.428 0.274,-0.429C0.236,-0.43 0.206,-0.416 0.184,-0.387C0.162,-0.358 0.151,-0.313 0.152,-0.252ZM0.384,-0.064C0.369,-0.03 0.35,-0.007 0.327,0.006C0.304,0.019 0.277,0.025 0.244,0.025C0.211,0.025 0.182,0.019 0.155,0.007C0.128,-0.006 0.104,-0.024 0.085,-0.048C0.066,-0.071 0.051,-0.1 0.04,-0.135C0.029,-0.169 0.024,-0.208 0.024,-0.252C0.024,-0.306 0.03,-0.351 0.043,-0.388C0.055,-0.425 0.071,-0.454 0.092,-0.477C0.112,-0.5 0.135,-0.516 0.162,-0.526C0.189,-0.535 0.216,-0.54 0.245,-0.54C0.277,-0.54 0.305,-0.531 0.33,-0.514C0.355,-0.496 0.373,-0.47 0.386,-0.436L0.386,-0.478C0.386,-0.489 0.391,-0.5 0.402,-0.512C0.412,-0.524 0.428,-0.53 0.449,-0.53C0.47,-0.529 0.486,-0.523 0.497,-0.512C0.507,-0.5 0.512,-0.489 0.512,-0.478L0.512,-0.033C0.512,-0.022 0.508,-0.011 0.5,0.001C0.491,0.012 0.474,0.018 0.448,0.019C0.435,0.019 0.424,0.017 0.416,0.014C0.408,0.011 0.402,0.006 0.397,0.001C0.392,-0.004 0.388,-0.01 0.387,-0.016C0.385,-0.022 0.384,-0.028 0.384,-0.033L0.384,-0.064Z" style="fill:#4d4d4d;fill-rule:nonzero;"/>
        </g>
        <g transform="matrix(26.4,0,0,24,53.4471,20.0982)">
            <path d="M0.024,-0.252C0.024,-0.29 0.029,-0.326 0.041,-0.361C0.051,-0.396 0.068,-0.426 0.09,-0.453C0.111,-0.479 0.138,-0.5 0.171,-0.516C0.203,-0.532 0.24,-0.54 0.283,-0.54C0.317,-0.54 0.348,-0.534 0.377,-0.522C0.405,-0.51 0.426,-0.497 0.441,-0.482C0.446,-0.477 0.452,-0.47 0.457,-0.462C0.462,-0.454 0.465,-0.445 0.468,-0.436C0.47,-0.427 0.471,-0.417 0.47,-0.408C0.468,-0.399 0.465,-0.39 0.458,-0.382C0.455,-0.379 0.451,-0.375 0.446,-0.371C0.441,-0.367 0.434,-0.364 0.427,-0.363C0.42,-0.361 0.412,-0.361 0.404,-0.363C0.396,-0.364 0.388,-0.37 0.38,-0.379C0.367,-0.395 0.353,-0.407 0.339,-0.416C0.324,-0.425 0.306,-0.429 0.285,-0.429C0.265,-0.429 0.247,-0.425 0.23,-0.416C0.213,-0.407 0.199,-0.395 0.188,-0.38C0.176,-0.365 0.167,-0.346 0.16,-0.324C0.153,-0.302 0.15,-0.278 0.15,-0.251C0.15,-0.223 0.154,-0.198 0.162,-0.178C0.169,-0.157 0.179,-0.139 0.192,-0.125C0.205,-0.11 0.219,-0.099 0.235,-0.092C0.251,-0.085 0.267,-0.081 0.284,-0.081C0.297,-0.081 0.307,-0.082 0.316,-0.083C0.324,-0.084 0.331,-0.086 0.336,-0.089C0.341,-0.092 0.346,-0.094 0.35,-0.098C0.354,-0.1 0.358,-0.104 0.362,-0.107C0.368,-0.112 0.374,-0.117 0.381,-0.122C0.388,-0.127 0.395,-0.13 0.402,-0.133C0.409,-0.135 0.417,-0.135 0.426,-0.134C0.435,-0.133 0.444,-0.129 0.454,-0.122C0.469,-0.112 0.477,-0.101 0.48,-0.091C0.483,-0.08 0.479,-0.065 0.469,-0.048C0.456,-0.025 0.433,-0.006 0.402,0.009C0.371,0.023 0.332,0.03 0.286,0.03C0.244,0.03 0.207,0.023 0.174,0.01C0.141,-0.003 0.114,-0.022 0.092,-0.047C0.069,-0.072 0.052,-0.101 0.041,-0.136C0.03,-0.171 0.024,-0.209 0.024,-0.252Z" style="fill:#4d4d4d;fill-rule:nonzero;"/>
        </g>
        <g transform="matrix(26.4,0,0,24,67.1487,20.0982)">
            <path d="M0.024,-0.252C0.024,-0.29 0.029,-0.326 0.041,-0.361C0.051,-0.396 0.068,-0.426 0.09,-0.453C0.111,-0.479 0.138,-0.5 0.171,-0.516C0.203,-0.532 0.24,-0.54 0.283,-0.54C0.317,-0.54 0.348,-0.534 0.377,-0.522C0.405,-0.51 0.426,-0.497 0.441,-0.482C0.446,-0.477 0.452,-0.47 0.457,-0.462C0.462,-0.454 0.465,-0.445 0.468,-0.436C0.47,-0.427 0.471,-0.417 0.47,-0.408C0.468,-0.399 0.465,-0.39 0.458,-0.382C0.455,-0.379 0.451,-0.375 0.446,-0.371C0.441,-0.367 0.434,-0.364 0.427,-0.363C0.42,-0.361 0.412,-0.361 0.404,-0.363C0.396,-0.364 0.388,-0.37 0.38,-0.379C0.367,-0.395 0.353,-0.407 0.339,-0.416C0.324,-0.425 0.306,-0.429 0.285,-0.429C0.265,-0.429 0.247,-0.425 0.23,-0.416C0.213,-0.407 0.199,-0.395 0.188,-0.38C0.176,-0.365 0.167,-0.346 0.16,-0.324C0.153,-0.302 0.15,-0.278 0.15,-0.251C0.15,-0.223 0.154,-0.198 0.162,-0.178C0.169,-0.157 0.179,-0.139 0.192,-0.125C0.205,-0.11 0.219,-0.099 0.235,-0.092C0.251,-0.085 0.267,-0.081 0.284,-0.081C0.297,-0.081 0.307,-0.082 0.316,-0.083C0.324,-0.084 0.331,-0.086 0.336,-0.089C0.341,-0.092 0.346,-0.094 0.35,-0.098C0.354,-0.1 0.358,-0.104 0.362,-0.107C0.368,-0.112 0.374,-0.117 0.381,-0.122C0.388,-0.127 0.395,-0.13 0.402,-0.133C0.409,-0.135 0.417,-0.135 0.426,-0.134C0.435,-0.133 0.444,-0.129 0.454,-0.122C0.469,-0.112 0.477,-0.101 0.48,-0.091C0.483,-0.08 0.479,-0.065 0.469,-0.048C0.456,-0.025 0.433,-0.006 0.402,0.009C0.371,0.023 0.332,0.03 0.286,0.03C0.244,0.03 0.207,0.023 0.174,0.01C0.141,-0.003 0.114,-0.022 0.092,-0.047C0.069,-0.072 0.052,-0.101 0.041,-0.136C0.03,-0.171 0.024,-0.209 0.024,-0.252Z" style="fill:#4d4d4d;fill-rule:nonzero;"/>
        </g>
        <g transform="matrix(26.4,0,0,24,80.8503,20.0982)">
            <path d="M0.278,-0.54C0.324,-0.54 0.363,-0.533 0.396,-0.518C0.429,-0.503 0.455,-0.483 0.476,-0.457C0.496,-0.431 0.511,-0.4 0.521,-0.365C0.53,-0.33 0.535,-0.292 0.535,-0.251C0.535,-0.21 0.53,-0.172 0.521,-0.138C0.511,-0.103 0.496,-0.074 0.475,-0.049C0.454,-0.024 0.427,-0.005 0.395,0.009C0.362,0.023 0.323,0.03 0.278,0.03C0.233,0.03 0.194,0.023 0.162,0.009C0.13,-0.006 0.104,-0.026 0.083,-0.051C0.062,-0.076 0.047,-0.105 0.038,-0.14C0.029,-0.175 0.024,-0.212 0.024,-0.253C0.024,-0.294 0.029,-0.331 0.038,-0.367C0.047,-0.401 0.062,-0.432 0.082,-0.458C0.102,-0.483 0.128,-0.503 0.161,-0.518C0.193,-0.533 0.232,-0.54 0.278,-0.54ZM0.278,-0.081C0.323,-0.081 0.356,-0.096 0.377,-0.126C0.398,-0.155 0.408,-0.197 0.408,-0.251C0.408,-0.305 0.398,-0.348 0.378,-0.381C0.358,-0.413 0.324,-0.429 0.276,-0.429C0.252,-0.429 0.232,-0.424 0.216,-0.415C0.2,-0.406 0.187,-0.393 0.178,-0.377C0.168,-0.361 0.161,-0.342 0.157,-0.321C0.153,-0.3 0.151,-0.277 0.151,-0.253C0.151,-0.199 0.161,-0.157 0.181,-0.127C0.201,-0.096 0.233,-0.081 0.278,-0.081Z" style="fill:#4d4d4d;fill-rule:nonzero;"/>
        </g>
        <g transform="matrix(26.4,0,0,24,96.3999,20.0982)">
            <path d="M0.179,-0.221C0.179,-0.2 0.18,-0.181 0.183,-0.164C0.186,-0.147 0.191,-0.133 0.198,-0.122C0.205,-0.111 0.214,-0.102 0.227,-0.096C0.24,-0.09 0.256,-0.087 0.275,-0.087C0.291,-0.087 0.306,-0.089 0.32,-0.093C0.333,-0.097 0.345,-0.104 0.355,-0.114C0.364,-0.123 0.372,-0.136 0.378,-0.153C0.383,-0.17 0.386,-0.191 0.386,-0.216L0.386,-0.488C0.386,-0.499 0.392,-0.509 0.404,-0.518C0.415,-0.526 0.43,-0.53 0.448,-0.53C0.466,-0.53 0.481,-0.526 0.493,-0.517C0.504,-0.508 0.51,-0.499 0.51,-0.488L0.51,-0.022C0.51,-0.01 0.504,0 0.492,0.008C0.479,0.016 0.464,0.02 0.447,0.02C0.43,0.02 0.415,0.016 0.404,0.008C0.392,0 0.386,-0.01 0.386,-0.022L0.386,-0.072C0.38,-0.06 0.373,-0.048 0.365,-0.037C0.356,-0.026 0.346,-0.015 0.335,-0.006C0.323,0.003 0.309,0.011 0.294,0.017C0.279,0.022 0.262,0.025 0.243,0.025C0.217,0.025 0.193,0.021 0.17,0.012C0.147,0.003 0.128,-0.009 0.111,-0.026C0.094,-0.042 0.08,-0.062 0.07,-0.087C0.06,-0.112 0.055,-0.14 0.055,-0.172L0.055,-0.488C0.055,-0.5 0.061,-0.51 0.072,-0.518C0.083,-0.526 0.097,-0.53 0.116,-0.53C0.135,-0.53 0.15,-0.526 0.162,-0.518C0.173,-0.51 0.179,-0.5 0.179,-0.488L0.179,-0.221Z" style="fill:#4d4d4d;fill-rule:nonzero;"/>
        </g>
        <g transform="matrix(26.4,0,0,24,111.791,20.0982)">
            <path d="M0.23,-0.407L0.23,-0.183C0.23,-0.164 0.231,-0.149 0.232,-0.137C0.233,-0.125 0.236,-0.116 0.24,-0.109C0.244,-0.101 0.25,-0.097 0.258,-0.094C0.265,-0.091 0.275,-0.09 0.288,-0.09C0.3,-0.09 0.312,-0.093 0.324,-0.1C0.336,-0.107 0.347,-0.112 0.358,-0.117C0.37,-0.122 0.381,-0.122 0.39,-0.117C0.399,-0.111 0.404,-0.099 0.404,-0.08C0.404,-0.061 0.4,-0.046 0.393,-0.034C0.386,-0.021 0.376,-0.011 0.363,-0.004C0.35,0.004 0.335,0.01 0.319,0.014C0.302,0.017 0.283,0.019 0.263,0.02C0.241,0.021 0.22,0.019 0.201,0.016C0.182,0.012 0.165,0.005 0.151,-0.006C0.136,-0.017 0.125,-0.031 0.117,-0.05C0.108,-0.068 0.104,-0.092 0.104,-0.121L0.104,-0.407L0.064,-0.407C0.045,-0.407 0.033,-0.412 0.027,-0.423C0.02,-0.433 0.017,-0.448 0.017,-0.467C0.017,-0.487 0.02,-0.501 0.026,-0.51C0.032,-0.519 0.044,-0.523 0.061,-0.523L0.104,-0.523L0.104,-0.575C0.104,-0.596 0.108,-0.612 0.116,-0.623C0.123,-0.634 0.141,-0.639 0.168,-0.639C0.196,-0.639 0.213,-0.635 0.22,-0.626C0.227,-0.616 0.23,-0.603 0.23,-0.586L0.23,-0.523L0.334,-0.523C0.357,-0.523 0.373,-0.519 0.38,-0.51C0.387,-0.501 0.39,-0.486 0.391,-0.467C0.392,-0.448 0.388,-0.433 0.38,-0.423C0.372,-0.412 0.355,-0.407 0.33,-0.407L0.23,-0.407Z" style="fill:#4d4d4d;fill-rule:nonzero;"/>
        </g>
        <g transform="matrix(26.4,0,0,24,123.539,20.0982)">
            <path d="M0.354,-0.301C0.354,-0.318 0.353,-0.334 0.35,-0.35C0.347,-0.365 0.343,-0.379 0.336,-0.391C0.329,-0.402 0.319,-0.412 0.308,-0.419C0.296,-0.426 0.281,-0.429 0.262,-0.429C0.238,-0.429 0.219,-0.425 0.204,-0.417C0.189,-0.408 0.178,-0.398 0.17,-0.385C0.162,-0.372 0.157,-0.358 0.154,-0.343C0.151,-0.328 0.15,-0.314 0.15,-0.301L0.354,-0.301ZM0.265,0.03C0.224,0.03 0.189,0.023 0.159,0.01C0.129,-0.003 0.104,-0.022 0.084,-0.047C0.064,-0.071 0.049,-0.1 0.039,-0.135C0.029,-0.17 0.024,-0.208 0.024,-0.251C0.024,-0.292 0.029,-0.331 0.039,-0.366C0.049,-0.401 0.064,-0.432 0.085,-0.458C0.105,-0.483 0.13,-0.503 0.16,-0.518C0.19,-0.533 0.225,-0.54 0.265,-0.54C0.303,-0.54 0.335,-0.533 0.362,-0.52C0.389,-0.507 0.411,-0.489 0.428,-0.466C0.444,-0.443 0.457,-0.417 0.465,-0.387C0.473,-0.357 0.477,-0.325 0.477,-0.292C0.477,-0.264 0.473,-0.243 0.466,-0.228C0.459,-0.213 0.445,-0.206 0.425,-0.206L0.15,-0.206C0.15,-0.191 0.152,-0.176 0.155,-0.161C0.158,-0.146 0.165,-0.133 0.174,-0.121C0.183,-0.109 0.195,-0.099 0.21,-0.092C0.225,-0.085 0.244,-0.081 0.267,-0.081C0.297,-0.081 0.321,-0.086 0.338,-0.095C0.355,-0.103 0.368,-0.114 0.378,-0.125C0.385,-0.134 0.393,-0.139 0.4,-0.141C0.407,-0.143 0.414,-0.143 0.421,-0.142C0.427,-0.14 0.432,-0.137 0.438,-0.134C0.443,-0.131 0.447,-0.128 0.45,-0.126C0.463,-0.116 0.468,-0.102 0.465,-0.085C0.462,-0.067 0.453,-0.05 0.437,-0.033C0.42,-0.016 0.398,-0.001 0.369,0.012C0.339,0.024 0.305,0.03 0.265,0.03Z" style="fill:#4d4d4d;fill-rule:nonzero;"/>
        </g>
        <g transform="matrix(26.4,0,0,24,137.557,20.0982)">
            <path d="M0.319,-0.429C0.296,-0.429 0.275,-0.425 0.258,-0.416C0.24,-0.407 0.225,-0.395 0.214,-0.38C0.202,-0.365 0.193,-0.346 0.188,-0.325C0.182,-0.304 0.179,-0.281 0.179,-0.256L0.179,-0.022C0.179,-0.011 0.173,-0.001 0.162,0.008C0.15,0.016 0.135,0.02 0.117,0.02C0.099,0.02 0.084,0.016 0.073,0.007C0.061,-0.002 0.055,-0.011 0.055,-0.022L0.055,-0.488C0.055,-0.5 0.061,-0.51 0.074,-0.518C0.086,-0.526 0.101,-0.53 0.118,-0.53C0.135,-0.53 0.15,-0.526 0.162,-0.518C0.173,-0.51 0.179,-0.5 0.179,-0.488L0.179,-0.418C0.185,-0.43 0.192,-0.443 0.201,-0.457C0.209,-0.471 0.219,-0.484 0.231,-0.497C0.242,-0.509 0.256,-0.519 0.271,-0.528C0.286,-0.536 0.303,-0.54 0.322,-0.54C0.332,-0.54 0.34,-0.538 0.346,-0.535C0.352,-0.532 0.357,-0.528 0.36,-0.523C0.363,-0.518 0.366,-0.513 0.367,-0.508C0.368,-0.503 0.368,-0.498 0.368,-0.493C0.368,-0.468 0.364,-0.451 0.356,-0.442C0.347,-0.433 0.335,-0.429 0.319,-0.429Z" style="fill:#4d4d4d;fill-rule:nonzero;"/>
        </g>
    </g>
</svg>
