<?xml version="1.0" encoding="UTF-8" standalone="no"?>
<!DOCTYPE svg PUBLIC "-//W3C//DTD SVG 1.1//EN" "http://www.w3.org/Graphics/SVG/1.1/DTD/svg11.dtd">
<svg width="100%" height="100%" viewBox="0 0 512 512" version="1.1" xmlns="http://www.w3.org/2000/svg" xmlns:xlink="http://www.w3.org/1999/xlink" xml:space="preserve" xmlns:serif="http://www.serif.com/" style="fill-rule:evenodd;clip-rule:evenodd;stroke-linejoin:round;stroke-miterlimit:2;">
    <path d="M476,146C494.333,201 494.333,311 476,366C459.644,415.069 415.319,459.56 366,476C311,494.333 201,494.333 146,476C96.681,459.56 52.356,415.069 36,366C17.667,311 17.667,201 36,146C52.356,96.931 96.681,52.44 146,36C201,17.667 311,17.667 366,36C415.319,52.44 459.644,96.931 476,146ZM393.746,382.802C393.298,380.115 392.402,376.979 391.506,374.739C390.61,372.051 390.162,371.155 390.162,370.707L296.988,141.355L294.3,134.188C292.956,130.604 291.164,127.917 289.82,123.885C288.477,120.301 287.133,117.166 284.893,113.582C282.653,109.999 280.413,106.863 278.174,104.175C275.934,101.487 273.246,99.696 270.558,98.352C262.047,95.216 249.953,95.216 241.442,98.352C238.754,99.696 236.066,101.487 233.826,104.175C231.587,106.863 228.899,109.999 227.107,113.582C224.867,117.166 223.523,120.301 222.18,123.885C220.836,127.917 219.044,130.604 217.7,134.188L215.012,141.355L121.838,370.707C121.838,371.155 121.39,372.051 120.494,374.739C119.598,376.979 118.702,380.115 118.254,382.802C117.806,386.386 117.358,389.522 117.358,393.553C117.358,397.137 118.254,400.272 120.494,403.408C122.286,406.096 125.422,409.231 129.453,411.023C137.068,415.503 144.684,416.847 153.195,415.503C156.778,414.607 160.81,412.815 164.394,409.679C165.289,408.784 166.185,408.336 166.633,407.44C167.081,406.992 167.977,405.648 168.873,405.2C171.561,402.512 173.353,399.377 174.696,396.689C176.488,394.001 177.832,391.313 179.624,388.178C180.968,385.938 181.864,383.698 182.76,381.458C183.656,379.219 184.103,376.531 184.999,374.291L194.406,352.341C235.17,352.789 276.83,352.341 317.594,352.341L327.001,374.291C327.449,376.531 328.344,379.219 329.24,381.458C329.688,383.698 331.032,385.938 332.376,388.178C334.168,391.313 335.512,394.001 336.856,396.689C338.647,399.377 340.439,402.512 343.127,405.2C344.023,405.648 344.919,406.992 345.367,407.44C345.815,408.336 346.711,408.784 347.606,409.679C351.19,412.815 355.222,414.607 358.805,415.503C367.316,416.847 374.932,415.503 382.547,411.023C386.578,409.231 389.714,406.096 391.506,403.408C393.746,400.272 394.642,397.137 394.642,393.553C394.642,389.522 394.194,386.386 393.746,382.802ZM295.644,292.764L216.356,292.764L224.419,273.054C232.034,256.031 240.098,237.217 249.057,217.955C251.296,212.58 253.984,206.757 255.776,201.381C258.016,206.757 260.704,212.58 262.943,217.955C271.902,237.217 279.966,256.031 287.581,273.054L295.644,292.764Z" style="fill:#1162b8;"/>
</svg>
