<?xml version="1.0" encoding="UTF-8" standalone="no"?>
<!DOCTYPE svg PUBLIC "-//W3C//DTD SVG 1.1//EN" "http://www.w3.org/Graphics/SVG/1.1/DTD/svg11.dtd">
<svg width="100%" height="100%" viewBox="0 0 150 32" version="1.1" xmlns="http://www.w3.org/2000/svg" xmlns:xlink="http://www.w3.org/1999/xlink" xml:space="preserve" xmlns:serif="http://www.serif.com/" style="fill-rule:evenodd;clip-rule:evenodd;stroke-linejoin:round;stroke-miterlimit:2;">
    <path d="M29.75,9.125C30.896,12.563 30.896,19.438 29.75,22.875C28.728,25.942 25.957,28.723 22.875,29.75C19.437,30.896 12.562,30.896 9.125,29.75C6.043,28.723 3.272,25.942 2.25,22.875C1.104,19.438 1.104,12.563 2.25,9.125C3.272,6.058 6.043,3.277 9.125,2.25C12.562,1.104 19.437,1.104 22.875,2.25C25.957,3.277 28.728,6.058 29.75,9.125ZM24.609,23.3C24.581,23.132 24.525,22.936 24.469,22.796C24.413,22.628 24.385,22.572 24.385,22.544L18.562,8.21L18.394,7.762C18.31,7.538 18.198,7.37 18.114,7.118C18.03,6.894 17.946,6.698 17.806,6.474C17.666,6.25 17.526,6.054 17.386,5.886C17.246,5.718 17.078,5.606 16.91,5.522C16.378,5.326 15.622,5.326 15.09,5.522C14.922,5.606 14.754,5.718 14.614,5.886C14.474,6.054 14.306,6.25 14.194,6.474C14.054,6.698 13.97,6.894 13.886,7.118C13.802,7.37 13.69,7.538 13.606,7.762L13.438,8.21L7.615,22.544C7.615,22.572 7.587,22.628 7.531,22.796C7.475,22.936 7.419,23.132 7.391,23.3C7.363,23.524 7.335,23.72 7.335,23.972C7.335,24.196 7.391,24.392 7.531,24.588C7.643,24.756 7.839,24.952 8.091,25.064C8.567,25.344 9.043,25.428 9.575,25.344C9.799,25.288 10.051,25.176 10.275,24.98C10.331,24.924 10.387,24.896 10.415,24.84C10.443,24.812 10.499,24.728 10.555,24.7C10.723,24.532 10.835,24.336 10.919,24.168C11.031,24 11.115,23.832 11.226,23.636C11.31,23.496 11.366,23.356 11.422,23.216C11.478,23.076 11.506,22.908 11.562,22.768L12.15,21.396C14.698,21.424 17.302,21.396 19.85,21.396L20.438,22.768C20.466,22.908 20.522,23.076 20.578,23.216C20.606,23.356 20.69,23.496 20.774,23.636C20.885,23.832 20.969,24 21.053,24.168C21.165,24.336 21.277,24.532 21.445,24.7C21.501,24.728 21.557,24.812 21.585,24.84C21.613,24.896 21.669,24.924 21.725,24.98C21.949,25.176 22.201,25.288 22.425,25.344C22.957,25.428 23.433,25.344 23.909,25.064C24.161,24.952 24.357,24.756 24.469,24.588C24.609,24.392 24.665,24.196 24.665,23.972C24.665,23.72 24.637,23.524 24.609,23.3ZM18.478,17.673L13.522,17.673L14.026,16.441C14.502,15.377 15.006,14.201 15.566,12.997C15.706,12.661 15.874,12.297 15.986,11.961C16.126,12.297 16.294,12.661 16.434,12.997C16.994,14.201 17.498,15.377 17.974,16.441L18.478,17.673Z" style="fill:#1162b8;"/>
    <path d="M44.166,17.26C44.183,18.716 44.478,19.764 45.05,20.404C45.622,21.044 46.418,21.364 47.439,21.364C48.46,21.364 49.208,21 49.683,20.272C50.158,19.544 50.387,18.548 50.37,17.284C50.352,15.988 50.101,14.96 49.617,14.2C49.133,13.44 48.39,13.044 47.386,13.012C46.383,12.996 45.591,13.336 45.01,14.032C44.43,14.728 44.148,15.804 44.166,17.26ZM50.29,21.772C49.886,22.588 49.384,23.148 48.786,23.452C48.187,23.756 47.457,23.908 46.594,23.908C45.732,23.908 44.944,23.76 44.232,23.464C43.519,23.168 42.907,22.736 42.397,22.168C41.886,21.6 41.49,20.904 41.209,20.08C40.927,19.256 40.786,18.316 40.786,17.26C40.786,15.964 40.949,14.876 41.275,13.996C41.6,13.116 42.032,12.404 42.568,11.86C43.105,11.316 43.726,10.928 44.43,10.696C45.134,10.464 45.864,10.348 46.621,10.348C47.466,10.348 48.214,10.56 48.865,10.984C49.516,11.408 50.009,12.028 50.343,12.844L50.343,11.836C50.343,11.58 50.48,11.308 50.752,11.02C51.025,10.732 51.443,10.588 52.006,10.588C52.57,10.604 52.988,10.752 53.26,11.032C53.533,11.312 53.67,11.58 53.67,11.836L53.67,22.516C53.67,22.772 53.56,23.04 53.34,23.32C53.12,23.6 52.666,23.748 51.98,23.764C51.628,23.764 51.346,23.724 51.135,23.644C50.924,23.564 50.752,23.46 50.62,23.332C50.488,23.204 50.4,23.068 50.356,22.924C50.312,22.78 50.29,22.644 50.29,22.516L50.29,21.772Z" style="fill:#404040;fill-rule:nonzero;"/>
    <path d="M55.808,17.26C55.808,16.348 55.953,15.476 56.244,14.644C56.534,13.812 56.965,13.08 57.537,12.448C58.109,11.816 58.822,11.308 59.676,10.924C60.529,10.54 61.519,10.348 62.646,10.348C63.543,10.348 64.366,10.492 65.114,10.78C65.862,11.068 66.43,11.388 66.817,11.74C66.958,11.868 67.094,12.028 67.226,12.22C67.358,12.412 67.455,12.62 67.516,12.844C67.578,13.068 67.596,13.292 67.569,13.516C67.543,13.74 67.442,13.948 67.266,14.14C67.195,14.22 67.09,14.308 66.949,14.404C66.808,14.5 66.641,14.568 66.447,14.608C66.254,14.648 66.051,14.648 65.84,14.608C65.629,14.568 65.418,14.436 65.206,14.212C64.854,13.828 64.489,13.532 64.111,13.324C63.732,13.116 63.262,13.012 62.698,13.012C62.17,13.012 61.686,13.116 61.246,13.324C60.806,13.532 60.432,13.82 60.124,14.188C59.816,14.556 59.574,15.004 59.398,15.532C59.222,16.06 59.134,16.644 59.134,17.284C59.134,17.956 59.236,18.544 59.438,19.048C59.64,19.552 59.909,19.976 60.243,20.32C60.578,20.664 60.956,20.924 61.378,21.1C61.801,21.276 62.232,21.364 62.672,21.364C63.006,21.364 63.284,21.348 63.504,21.316C63.724,21.284 63.904,21.236 64.045,21.172C64.186,21.108 64.309,21.04 64.414,20.968C64.52,20.896 64.626,20.82 64.731,20.74C64.89,20.628 65.057,20.512 65.233,20.392C65.409,20.272 65.594,20.184 65.787,20.128C65.981,20.072 66.192,20.06 66.421,20.092C66.65,20.124 66.896,20.22 67.16,20.38C67.547,20.62 67.776,20.872 67.846,21.136C67.917,21.4 67.82,21.74 67.556,22.156C67.204,22.716 66.614,23.168 65.787,23.512C64.96,23.856 63.939,24.028 62.725,24.028C61.616,24.028 60.63,23.868 59.768,23.548C58.906,23.228 58.18,22.772 57.59,22.18C57,21.588 56.556,20.876 56.257,20.044C55.958,19.212 55.808,18.284 55.808,17.26Z" style="fill:#404040;fill-rule:nonzero;"/>
    <path d="M69.51,17.26C69.51,16.348 69.655,15.476 69.945,14.644C70.236,13.812 70.667,13.08 71.239,12.448C71.811,11.816 72.524,11.308 73.377,10.924C74.231,10.54 75.221,10.348 76.347,10.348C77.245,10.348 78.068,10.492 78.816,10.78C79.564,11.068 80.131,11.388 80.518,11.74C80.659,11.868 80.796,12.028 80.928,12.22C81.06,12.412 81.156,12.62 81.218,12.844C81.28,13.068 81.297,13.292 81.271,13.516C81.244,13.74 81.143,13.948 80.967,14.14C80.897,14.22 80.791,14.308 80.65,14.404C80.51,14.5 80.342,14.568 80.149,14.608C79.955,14.648 79.753,14.648 79.542,14.608C79.33,14.568 79.119,14.436 78.908,14.212C78.556,13.828 78.191,13.532 77.812,13.324C77.434,13.116 76.963,13.012 76.4,13.012C75.872,13.012 75.388,13.116 74.948,13.324C74.508,13.532 74.134,13.82 73.826,14.188C73.518,14.556 73.276,15.004 73.1,15.532C72.924,16.06 72.836,16.644 72.836,17.284C72.836,17.956 72.937,18.544 73.14,19.048C73.342,19.552 73.61,19.976 73.945,20.32C74.279,20.664 74.658,20.924 75.08,21.1C75.502,21.276 75.934,21.364 76.374,21.364C76.708,21.364 76.985,21.348 77.205,21.316C77.425,21.284 77.606,21.236 77.746,21.172C77.887,21.108 78.01,21.04 78.116,20.968C78.222,20.896 78.327,20.82 78.433,20.74C78.591,20.628 78.758,20.512 78.934,20.392C79.11,20.272 79.295,20.184 79.489,20.128C79.682,20.072 79.894,20.06 80.122,20.092C80.351,20.124 80.598,20.22 80.862,20.38C81.249,20.62 81.478,20.872 81.548,21.136C81.618,21.4 81.522,21.74 81.258,22.156C80.906,22.716 80.316,23.168 79.489,23.512C78.662,23.856 77.641,24.028 76.426,24.028C75.318,24.028 74.332,23.868 73.47,23.548C72.607,23.228 71.881,22.772 71.292,22.18C70.702,21.588 70.258,20.876 69.958,20.044C69.659,19.212 69.51,18.284 69.51,17.26Z" style="fill:#404040;fill-rule:nonzero;"/>
    <path d="M89.917,10.348C91.131,10.348 92.17,10.524 93.032,10.876C93.894,11.228 94.594,11.716 95.131,12.34C95.668,12.964 96.064,13.7 96.319,14.548C96.574,15.396 96.702,16.308 96.702,17.284C96.702,18.276 96.574,19.184 96.319,20.008C96.064,20.832 95.659,21.54 95.104,22.132C94.55,22.724 93.846,23.188 92.992,23.524C92.139,23.86 91.114,24.028 89.917,24.028C88.72,24.028 87.699,23.856 86.854,23.512C86.01,23.168 85.314,22.696 84.769,22.096C84.223,21.496 83.827,20.78 83.581,19.948C83.334,19.116 83.211,18.212 83.211,17.236C83.211,16.26 83.334,15.352 83.581,14.512C83.827,13.672 84.214,12.944 84.742,12.328C85.27,11.712 85.961,11.228 86.815,10.876C87.668,10.524 88.702,10.348 89.917,10.348ZM89.917,21.364C91.096,21.364 91.963,21.008 92.517,20.296C93.072,19.584 93.349,18.58 93.349,17.284C93.349,15.988 93.085,14.952 92.557,14.176C92.029,13.4 91.131,13.012 89.864,13.012C89.23,13.012 88.702,13.124 88.28,13.348C87.858,13.572 87.519,13.876 87.264,14.26C87.008,14.644 86.828,15.092 86.722,15.604C86.617,16.116 86.564,16.66 86.564,17.236C86.564,18.532 86.828,19.544 87.356,20.272C87.884,21 88.738,21.364 89.917,21.364Z" style="fill:#404040;fill-rule:nonzero;"/>
    <path d="M102.853,18.004C102.853,18.516 102.888,18.972 102.958,19.372C103.029,19.772 103.156,20.108 103.341,20.38C103.526,20.652 103.786,20.86 104.12,21.004C104.454,21.148 104.877,21.22 105.387,21.22C105.81,21.22 106.201,21.172 106.562,21.076C106.923,20.98 107.231,20.816 107.486,20.584C107.741,20.352 107.944,20.036 108.093,19.636C108.243,19.236 108.318,18.732 108.318,18.124L108.318,11.596C108.318,11.324 108.472,11.088 108.78,10.888C109.088,10.688 109.479,10.588 109.954,10.588C110.43,10.588 110.821,10.692 111.129,10.9C111.437,11.108 111.591,11.34 111.591,11.596L111.591,22.78C111.591,23.068 111.428,23.308 111.103,23.5C110.777,23.692 110.386,23.788 109.928,23.788C109.47,23.788 109.088,23.692 108.78,23.5C108.472,23.308 108.318,23.068 108.318,22.78L108.318,21.58C108.159,21.868 107.97,22.148 107.75,22.42C107.53,22.692 107.266,22.94 106.958,23.164C106.65,23.388 106.294,23.568 105.889,23.704C105.484,23.84 105.035,23.908 104.542,23.908C103.856,23.908 103.214,23.804 102.615,23.596C102.017,23.388 101.493,23.088 101.044,22.696C100.596,22.304 100.239,21.812 99.975,21.22C99.711,20.628 99.579,19.948 99.579,19.18L99.579,11.596C99.579,11.308 99.724,11.068 100.015,10.876C100.305,10.684 100.697,10.588 101.19,10.588C101.682,10.588 102.083,10.684 102.391,10.876C102.699,11.068 102.853,11.308 102.853,11.596L102.853,18.004Z" style="fill:#404040;fill-rule:nonzero;"/>
    <path d="M119.59,13.54L119.59,18.916C119.59,19.364 119.608,19.732 119.643,20.02C119.678,20.308 119.749,20.536 119.854,20.704C119.96,20.872 120.114,20.988 120.316,21.052C120.519,21.116 120.787,21.148 121.122,21.148C121.438,21.148 121.755,21.068 122.072,20.908C122.389,20.748 122.688,20.612 122.97,20.5C123.286,20.372 123.568,20.376 123.814,20.512C124.061,20.648 124.184,20.94 124.184,21.388C124.184,21.836 124.087,22.208 123.894,22.504C123.7,22.8 123.436,23.04 123.102,23.224C122.767,23.408 122.376,23.544 121.927,23.632C121.478,23.72 120.99,23.772 120.462,23.788C119.881,23.804 119.335,23.768 118.825,23.68C118.314,23.592 117.87,23.42 117.492,23.164C117.113,22.908 116.814,22.56 116.594,22.12C116.374,21.68 116.264,21.108 116.264,20.404L116.264,13.54L115.208,13.54C114.715,13.54 114.385,13.416 114.218,13.168C114.051,12.92 113.967,12.564 113.967,12.1C113.967,11.62 114.046,11.276 114.205,11.068C114.363,10.86 114.671,10.756 115.129,10.756L116.264,10.756L116.264,9.508C116.264,8.996 116.365,8.612 116.568,8.356C116.77,8.1 117.232,7.972 117.954,7.972C118.693,7.972 119.15,8.08 119.326,8.296C119.502,8.512 119.59,8.828 119.59,9.244L119.59,10.756L122.336,10.756C122.952,10.756 123.352,10.864 123.537,11.08C123.722,11.296 123.823,11.636 123.841,12.1C123.858,12.564 123.762,12.92 123.55,13.168C123.339,13.416 122.899,13.54 122.23,13.54L119.59,13.54Z" style="fill:#404040;fill-rule:nonzero;"/>
    <path d="M134.612,16.084C134.612,15.684 134.577,15.296 134.506,14.92C134.436,14.544 134.308,14.216 134.124,13.936C133.939,13.656 133.692,13.432 133.384,13.264C133.076,13.096 132.676,13.012 132.183,13.012C131.55,13.012 131.039,13.112 130.652,13.312C130.265,13.512 129.966,13.768 129.754,14.08C129.543,14.392 129.402,14.728 129.332,15.088C129.262,15.448 129.226,15.78 129.226,16.084L134.612,16.084ZM132.262,24.028C131.189,24.028 130.256,23.868 129.464,23.548C128.672,23.228 128.012,22.776 127.484,22.192C126.956,21.608 126.56,20.9 126.296,20.068C126.032,19.236 125.9,18.308 125.9,17.284C125.9,16.292 126.032,15.372 126.296,14.524C126.56,13.676 126.96,12.944 127.497,12.328C128.034,11.712 128.698,11.228 129.49,10.876C130.282,10.524 131.206,10.348 132.262,10.348C133.266,10.348 134.119,10.508 134.823,10.828C135.527,11.148 136.104,11.58 136.552,12.124C137.001,12.668 137.331,13.3 137.542,14.02C137.754,14.74 137.859,15.5 137.859,16.3C137.859,16.972 137.762,17.484 137.569,17.836C137.375,18.188 137.014,18.364 136.486,18.364L129.226,18.364C129.226,18.732 129.27,19.092 129.358,19.444C129.446,19.796 129.609,20.116 129.847,20.404C130.084,20.692 130.401,20.924 130.797,21.1C131.193,21.276 131.699,21.364 132.315,21.364C133.107,21.364 133.728,21.256 134.176,21.04C134.625,20.824 134.982,20.58 135.246,20.308C135.439,20.1 135.633,19.972 135.826,19.924C136.02,19.876 136.2,19.872 136.368,19.912C136.535,19.952 136.684,20.012 136.816,20.092C136.948,20.172 137.058,20.236 137.146,20.284C137.481,20.524 137.613,20.856 137.542,21.28C137.472,21.704 137.221,22.12 136.79,22.528C136.359,22.936 135.76,23.288 134.995,23.584C134.229,23.88 133.318,24.028 132.262,24.028Z" style="fill:#404040;fill-rule:nonzero;"/>
    <path d="M147.706,13.012C147.09,13.012 146.549,13.116 146.083,13.324C145.616,13.532 145.229,13.82 144.921,14.188C144.613,14.556 144.384,14.996 144.235,15.508C144.085,16.02 144.01,16.572 144.01,17.164L144.01,22.78C144.01,23.052 143.856,23.288 143.548,23.488C143.24,23.688 142.849,23.788 142.374,23.788C141.898,23.788 141.507,23.684 141.199,23.476C140.891,23.268 140.737,23.036 140.737,22.78L140.737,11.596C140.737,11.308 140.9,11.068 141.225,10.876C141.551,10.684 141.942,10.588 142.4,10.588C142.858,10.588 143.24,10.684 143.548,10.876C143.856,11.068 144.01,11.308 144.01,11.596L144.01,13.276C144.169,12.988 144.358,12.676 144.578,12.34C144.798,12.004 145.062,11.688 145.37,11.392C145.678,11.096 146.03,10.848 146.426,10.648C146.822,10.448 147.275,10.348 147.786,10.348C148.05,10.348 148.261,10.388 148.419,10.468C148.578,10.548 148.701,10.644 148.789,10.756C148.877,10.868 148.934,10.988 148.96,11.116C148.987,11.244 149,11.364 149,11.476C149,12.084 148.89,12.492 148.67,12.7C148.45,12.908 148.129,13.012 147.706,13.012Z" style="fill:#404040;fill-rule:nonzero;"/>
</svg>
