<?xml version="1.0" encoding="UTF-8" standalone="no"?>
<!DOCTYPE svg PUBLIC "-//W3C//DTD SVG 1.1//EN" "http://www.w3.org/Graphics/SVG/1.1/DTD/svg11.dtd">
<svg width="100%" height="100%" viewBox="0 0 150 32" version="1.1" xmlns="http://www.w3.org/2000/svg" xmlns:xlink="http://www.w3.org/1999/xlink" xml:space="preserve" xmlns:serif="http://www.serif.com/" style="fill-rule:evenodd;clip-rule:evenodd;stroke-linejoin:round;stroke-miterlimit:2;">
    <path d="M29.75,9.125c1.146,3.438 1.146,10.313 0,13.75c-1.022,3.067 -3.793,5.848 -6.875,6.875c-3.438,1.146 -10.313,1.146 -13.75,-0c-3.082,-1.027 -5.853,-3.808 -6.875,-6.875c-1.146,-3.437 -1.146,-10.312 0,-13.75c1.022,-3.067 3.793,-5.848 6.875,-6.875c3.437,-1.146 10.312,-1.146 13.75,0c3.082,1.027 5.853,3.808 6.875,6.875Zm-5.141,14.175c-0.028,-0.168 -0.084,-0.364 -0.14,-0.504c-0.056,-0.168 -0.084,-0.224 -0.084,-0.252l-5.823,-14.334l-0.168,-0.448c-0.084,-0.224 -0.196,-0.392 -0.28,-0.644c-0.084,-0.224 -0.168,-0.42 -0.308,-0.644c-0.14,-0.224 -0.28,-0.42 -0.42,-0.588c-0.14,-0.168 -0.308,-0.28 -0.476,-0.364c-0.532,-0.196 -1.288,-0.196 -1.82,-0c-0.168,0.084 -0.336,0.196 -0.476,0.364c-0.14,0.168 -0.308,0.364 -0.42,0.588c-0.14,0.224 -0.224,0.42 -0.308,0.644c-0.084,0.252 -0.196,0.42 -0.28,0.644l-0.168,0.448l-5.823,14.334c-0,0.028 -0.028,0.084 -0.084,0.252c-0.056,0.14 -0.112,0.336 -0.14,0.504c-0.028,0.224 -0.056,0.42 -0.056,0.672c-0,0.224 0.056,0.42 0.196,0.616c0.112,0.168 0.308,0.364 0.56,0.476c0.476,0.28 0.952,0.364 1.484,0.28c0.224,-0.056 0.476,-0.168 0.7,-0.364c0.056,-0.056 0.112,-0.084 0.14,-0.14c0.028,-0.028 0.084,-0.112 0.14,-0.14c0.168,-0.168 0.28,-0.364 0.364,-0.532c0.112,-0.168 0.196,-0.336 0.307,-0.532c0.084,-0.14 0.14,-0.28 0.196,-0.42c0.056,-0.14 0.084,-0.308 0.14,-0.448l0.588,-1.372c2.548,0.028 5.152,0 7.7,0l0.588,1.372c0.028,0.14 0.084,0.308 0.14,0.448c0.028,0.14 0.112,0.28 0.196,0.42c0.111,0.196 0.195,0.364 0.279,0.532c0.112,0.168 0.224,0.364 0.392,0.532c0.056,0.028 0.112,0.112 0.14,0.14c0.028,0.056 0.084,0.084 0.14,0.14c0.224,0.196 0.476,0.308 0.7,0.364c0.532,0.084 1.008,-0 1.484,-0.28c0.252,-0.112 0.448,-0.308 0.56,-0.476c0.14,-0.196 0.196,-0.392 0.196,-0.616c0,-0.252 -0.028,-0.448 -0.056,-0.672Zm-6.131,-5.627l-4.956,-0l0.504,-1.232c0.476,-1.064 0.98,-2.24 1.54,-3.444c0.14,-0.336 0.308,-0.7 0.42,-1.036c0.14,0.336 0.308,0.7 0.448,1.036c0.56,1.204 1.064,2.38 1.54,3.444l0.504,1.232Z" style="fill:#1162b8;"/>
    <path d="M44.166,17.26c0.017,1.456 0.312,2.504 0.884,3.144c0.572,0.64 1.368,0.96 2.389,0.96c1.021,-0 1.769,-0.364 2.244,-1.092c0.475,-0.728 0.704,-1.724 0.687,-2.988c-0.018,-1.296 -0.269,-2.324 -0.753,-3.084c-0.484,-0.76 -1.227,-1.156 -2.231,-1.188c-1.003,-0.016 -1.795,0.324 -2.376,1.02c-0.58,0.696 -0.862,1.772 -0.844,3.228Zm6.124,4.512c-0.404,0.816 -0.906,1.376 -1.504,1.68c-0.599,0.304 -1.329,0.456 -2.192,0.456c-0.862,-0 -1.65,-0.148 -2.362,-0.444c-0.713,-0.296 -1.325,-0.728 -1.835,-1.296c-0.511,-0.568 -0.907,-1.264 -1.188,-2.088c-0.282,-0.824 -0.423,-1.764 -0.423,-2.82c0,-1.296 0.163,-2.384 0.489,-3.264c0.325,-0.88 0.757,-1.592 1.293,-2.136c0.537,-0.544 1.158,-0.932 1.862,-1.164c0.704,-0.232 1.434,-0.348 2.191,-0.348c0.845,-0 1.593,0.212 2.244,0.636c0.651,0.424 1.144,1.044 1.478,1.86l0,-1.008c0,-0.256 0.137,-0.528 0.409,-0.816c0.273,-0.288 0.691,-0.432 1.254,-0.432c0.564,0.016 0.982,0.164 1.254,0.444c0.273,0.28 0.41,0.548 0.41,0.804l-0,10.68c-0,0.256 -0.11,0.524 -0.33,0.804c-0.22,0.28 -0.674,0.428 -1.36,0.444c-0.352,-0 -0.634,-0.04 -0.845,-0.12c-0.211,-0.08 -0.383,-0.184 -0.515,-0.312c-0.132,-0.128 -0.22,-0.264 -0.264,-0.408c-0.044,-0.144 -0.066,-0.28 -0.066,-0.408l0,-0.744Z" style="fill-rule:nonzero;"/>
    <path d="M55.808,17.26c-0,-0.912 0.145,-1.784 0.436,-2.616c0.29,-0.832 0.721,-1.564 1.293,-2.196c0.572,-0.632 1.285,-1.14 2.139,-1.524c0.853,-0.384 1.843,-0.576 2.97,-0.576c0.897,-0 1.72,0.144 2.468,0.432c0.748,0.288 1.316,0.608 1.703,0.96c0.141,0.128 0.277,0.288 0.409,0.48c0.132,0.192 0.229,0.4 0.29,0.624c0.062,0.224 0.08,0.448 0.053,0.672c-0.026,0.224 -0.127,0.432 -0.303,0.624c-0.071,0.08 -0.176,0.168 -0.317,0.264c-0.141,0.096 -0.308,0.164 -0.502,0.204c-0.193,0.04 -0.396,0.04 -0.607,-0c-0.211,-0.04 -0.422,-0.172 -0.634,-0.396c-0.352,-0.384 -0.717,-0.68 -1.095,-0.888c-0.379,-0.208 -0.849,-0.312 -1.413,-0.312c-0.528,-0 -1.012,0.104 -1.452,0.312c-0.44,0.208 -0.814,0.496 -1.122,0.864c-0.308,0.368 -0.55,0.816 -0.726,1.344c-0.176,0.528 -0.264,1.112 -0.264,1.752c0,0.672 0.102,1.26 0.304,1.764c0.202,0.504 0.471,0.928 0.805,1.272c0.335,0.344 0.713,0.604 1.135,0.78c0.423,0.176 0.854,0.264 1.294,0.264c0.334,0 0.612,-0.016 0.832,-0.048c0.22,-0.032 0.4,-0.08 0.541,-0.144c0.141,-0.064 0.264,-0.132 0.369,-0.204c0.106,-0.072 0.212,-0.148 0.317,-0.228c0.159,-0.112 0.326,-0.228 0.502,-0.348c0.176,-0.12 0.361,-0.208 0.554,-0.264c0.194,-0.056 0.405,-0.068 0.634,-0.036c0.229,0.032 0.475,0.128 0.739,0.288c0.387,0.24 0.616,0.492 0.686,0.756c0.071,0.264 -0.026,0.604 -0.29,1.02c-0.352,0.56 -0.942,1.012 -1.769,1.356c-0.827,0.344 -1.848,0.516 -3.062,0.516c-1.109,-0 -2.095,-0.16 -2.957,-0.48c-0.862,-0.32 -1.588,-0.776 -2.178,-1.368c-0.59,-0.592 -1.034,-1.304 -1.333,-2.136c-0.299,-0.832 -0.449,-1.76 -0.449,-2.784Z" style="fill-rule:nonzero;"/>
    <path d="M69.51,17.26c-0,-0.912 0.145,-1.784 0.435,-2.616c0.291,-0.832 0.722,-1.564 1.294,-2.196c0.572,-0.632 1.285,-1.14 2.138,-1.524c0.854,-0.384 1.844,-0.576 2.97,-0.576c0.898,-0 1.721,0.144 2.469,0.432c0.748,0.288 1.315,0.608 1.702,0.96c0.141,0.128 0.278,0.288 0.41,0.48c0.132,0.192 0.228,0.4 0.29,0.624c0.062,0.224 0.079,0.448 0.053,0.672c-0.027,0.224 -0.128,0.432 -0.304,0.624c-0.07,0.08 -0.176,0.168 -0.317,0.264c-0.14,0.096 -0.308,0.164 -0.501,0.204c-0.194,0.04 -0.396,0.04 -0.607,-0c-0.212,-0.04 -0.423,-0.172 -0.634,-0.396c-0.352,-0.384 -0.717,-0.68 -1.096,-0.888c-0.378,-0.208 -0.849,-0.312 -1.412,-0.312c-0.528,-0 -1.012,0.104 -1.452,0.312c-0.44,0.208 -0.814,0.496 -1.122,0.864c-0.308,0.368 -0.55,0.816 -0.726,1.344c-0.176,0.528 -0.264,1.112 -0.264,1.752c-0,0.672 0.101,1.26 0.304,1.764c0.202,0.504 0.47,0.928 0.805,1.272c0.334,0.344 0.713,0.604 1.135,0.78c0.422,0.176 0.854,0.264 1.294,0.264c0.334,0 0.611,-0.016 0.831,-0.048c0.22,-0.032 0.401,-0.08 0.541,-0.144c0.141,-0.064 0.264,-0.132 0.37,-0.204c0.106,-0.072 0.211,-0.148 0.317,-0.228c0.158,-0.112 0.325,-0.228 0.501,-0.348c0.176,-0.12 0.361,-0.208 0.555,-0.264c0.193,-0.056 0.405,-0.068 0.633,-0.036c0.229,0.032 0.476,0.128 0.74,0.288c0.387,0.24 0.616,0.492 0.686,0.756c0.07,0.264 -0.026,0.604 -0.29,1.02c-0.352,0.56 -0.942,1.012 -1.769,1.356c-0.827,0.344 -1.848,0.516 -3.063,0.516c-1.108,-0 -2.094,-0.16 -2.956,-0.48c-0.863,-0.32 -1.589,-0.776 -2.178,-1.368c-0.59,-0.592 -1.034,-1.304 -1.334,-2.136c-0.299,-0.832 -0.448,-1.76 -0.448,-2.784Z" style="fill-rule:nonzero;"/>
    <path d="M89.917,10.348c1.214,-0 2.253,0.176 3.115,0.528c0.862,0.352 1.562,0.84 2.099,1.464c0.537,0.624 0.933,1.36 1.188,2.208c0.255,0.848 0.383,1.76 0.383,2.736c-0,0.992 -0.128,1.9 -0.383,2.724c-0.255,0.824 -0.66,1.532 -1.215,2.124c-0.554,0.592 -1.258,1.056 -2.112,1.392c-0.853,0.336 -1.878,0.504 -3.075,0.504c-1.197,-0 -2.218,-0.172 -3.063,-0.516c-0.844,-0.344 -1.54,-0.816 -2.085,-1.416c-0.546,-0.6 -0.942,-1.316 -1.188,-2.148c-0.247,-0.832 -0.37,-1.736 -0.37,-2.712c0,-0.976 0.123,-1.884 0.37,-2.724c0.246,-0.84 0.633,-1.568 1.161,-2.184c0.528,-0.616 1.219,-1.1 2.073,-1.452c0.853,-0.352 1.887,-0.528 3.102,-0.528Zm-0,11.016c1.179,0 2.046,-0.356 2.6,-1.068c0.555,-0.712 0.832,-1.716 0.832,-3.012c-0,-1.296 -0.264,-2.332 -0.792,-3.108c-0.528,-0.776 -1.426,-1.164 -2.693,-1.164c-0.634,0 -1.162,0.112 -1.584,0.336c-0.422,0.224 -0.761,0.528 -1.016,0.912c-0.256,0.384 -0.436,0.832 -0.542,1.344c-0.105,0.512 -0.158,1.056 -0.158,1.632c-0,1.296 0.264,2.308 0.792,3.036c0.528,0.728 1.382,1.092 2.561,1.092Z" style="fill-rule:nonzero;"/>
    <path d="M102.853,18.004c-0,0.512 0.035,0.968 0.105,1.368c0.071,0.4 0.198,0.736 0.383,1.008c0.185,0.272 0.445,0.48 0.779,0.624c0.334,0.144 0.757,0.216 1.267,0.216c0.423,0 0.814,-0.048 1.175,-0.144c0.361,-0.096 0.669,-0.26 0.924,-0.492c0.255,-0.232 0.458,-0.548 0.607,-0.948c0.15,-0.4 0.225,-0.904 0.225,-1.512l-0,-6.528c-0,-0.272 0.154,-0.508 0.462,-0.708c0.308,-0.2 0.699,-0.3 1.174,-0.3c0.476,0 0.867,0.104 1.175,0.312c0.308,0.208 0.462,0.44 0.462,0.696l0,11.184c0,0.288 -0.163,0.528 -0.488,0.72c-0.326,0.192 -0.717,0.288 -1.175,0.288c-0.458,0 -0.84,-0.096 -1.148,-0.288c-0.308,-0.192 -0.462,-0.432 -0.462,-0.72l-0,-1.2c-0.159,0.288 -0.348,0.568 -0.568,0.84c-0.22,0.272 -0.484,0.52 -0.792,0.744c-0.308,0.224 -0.664,0.404 -1.069,0.54c-0.405,0.136 -0.854,0.204 -1.347,0.204c-0.686,0 -1.328,-0.104 -1.927,-0.312c-0.598,-0.208 -1.122,-0.508 -1.571,-0.9c-0.448,-0.392 -0.805,-0.884 -1.069,-1.476c-0.264,-0.592 -0.396,-1.272 -0.396,-2.04l0,-7.584c0,-0.288 0.145,-0.528 0.436,-0.72c0.29,-0.192 0.682,-0.288 1.175,-0.288c0.492,0 0.893,0.096 1.201,0.288c0.308,0.192 0.462,0.432 0.462,0.72l-0,6.408Z" style="fill-rule:nonzero;"/>
    <path d="M119.59,13.54l0,5.376c0,0.448 0.018,0.816 0.053,1.104c0.035,0.288 0.106,0.516 0.211,0.684c0.106,0.168 0.26,0.284 0.462,0.348c0.203,0.064 0.471,0.096 0.806,0.096c0.316,0 0.633,-0.08 0.95,-0.24c0.317,-0.16 0.616,-0.296 0.898,-0.408c0.316,-0.128 0.598,-0.124 0.844,0.012c0.247,0.136 0.37,0.428 0.37,0.876c-0,0.448 -0.097,0.82 -0.29,1.116c-0.194,0.296 -0.458,0.536 -0.792,0.72c-0.335,0.184 -0.726,0.32 -1.175,0.408c-0.449,0.088 -0.937,0.14 -1.465,0.156c-0.581,0.016 -1.127,-0.02 -1.637,-0.108c-0.511,-0.088 -0.955,-0.26 -1.333,-0.516c-0.379,-0.256 -0.678,-0.604 -0.898,-1.044c-0.22,-0.44 -0.33,-1.012 -0.33,-1.716l-0,-6.864l-1.056,0c-0.493,0 -0.823,-0.124 -0.99,-0.372c-0.167,-0.248 -0.251,-0.604 -0.251,-1.068c0,-0.48 0.079,-0.824 0.238,-1.032c0.158,-0.208 0.466,-0.312 0.924,-0.312l1.135,0l-0,-1.248c-0,-0.512 0.101,-0.896 0.304,-1.152c0.202,-0.256 0.664,-0.384 1.386,-0.384c0.739,-0 1.196,0.108 1.372,0.324c0.176,0.216 0.264,0.532 0.264,0.948l0,1.512l2.746,-0c0.616,-0 1.016,0.108 1.201,0.324c0.185,0.216 0.286,0.556 0.304,1.02c0.017,0.464 -0.079,0.82 -0.291,1.068c-0.211,0.248 -0.651,0.372 -1.32,0.372l-2.64,-0Z" style="fill-rule:nonzero;"/>
    <path d="M134.612,16.084c-0,-0.4 -0.035,-0.788 -0.106,-1.164c-0.07,-0.376 -0.198,-0.704 -0.382,-0.984c-0.185,-0.28 -0.432,-0.504 -0.74,-0.672c-0.308,-0.168 -0.708,-0.252 -1.201,-0.252c-0.633,0 -1.144,0.1 -1.531,0.3c-0.387,0.2 -0.686,0.456 -0.898,0.768c-0.211,0.312 -0.352,0.648 -0.422,1.008c-0.07,0.36 -0.106,0.692 -0.106,0.996l5.386,0Zm-2.35,7.944c-1.073,0 -2.006,-0.16 -2.798,-0.48c-0.792,-0.32 -1.452,-0.772 -1.98,-1.356c-0.528,-0.584 -0.924,-1.292 -1.188,-2.124c-0.264,-0.832 -0.396,-1.76 -0.396,-2.784c-0,-0.992 0.132,-1.912 0.396,-2.76c0.264,-0.848 0.664,-1.58 1.201,-2.196c0.537,-0.616 1.201,-1.1 1.993,-1.452c0.792,-0.352 1.716,-0.528 2.772,-0.528c1.004,0 1.857,0.16 2.561,0.48c0.704,0.32 1.281,0.752 1.729,1.296c0.449,0.544 0.779,1.176 0.99,1.896c0.212,0.72 0.317,1.48 0.317,2.28c0,0.672 -0.097,1.184 -0.29,1.536c-0.194,0.352 -0.555,0.528 -1.083,0.528l-7.26,-0c0,0.368 0.044,0.728 0.132,1.08c0.088,0.352 0.251,0.672 0.489,0.96c0.237,0.288 0.554,0.52 0.95,0.696c0.396,0.176 0.902,0.264 1.518,0.264c0.792,-0 1.413,-0.108 1.861,-0.324c0.449,-0.216 0.806,-0.46 1.07,-0.732c0.193,-0.208 0.387,-0.336 0.58,-0.384c0.194,-0.048 0.374,-0.052 0.542,-0.012c0.167,0.04 0.316,0.1 0.448,0.18c0.132,0.08 0.242,0.144 0.33,0.192c0.335,0.24 0.467,0.572 0.396,0.996c-0.07,0.424 -0.321,0.84 -0.752,1.248c-0.431,0.408 -1.03,0.76 -1.795,1.056c-0.766,0.296 -1.677,0.444 -2.733,0.444Z" style="fill-rule:nonzero;"/>
    <path d="M147.706,13.012c-0.616,0 -1.157,0.104 -1.623,0.312c-0.467,0.208 -0.854,0.496 -1.162,0.864c-0.308,0.368 -0.537,0.808 -0.686,1.32c-0.15,0.512 -0.225,1.064 -0.225,1.656l0,5.616c0,0.272 -0.154,0.508 -0.462,0.708c-0.308,0.2 -0.699,0.3 -1.174,0.3c-0.476,0 -0.867,-0.104 -1.175,-0.312c-0.308,-0.208 -0.462,-0.44 -0.462,-0.696l-0,-11.184c-0,-0.288 0.163,-0.528 0.488,-0.72c0.326,-0.192 0.717,-0.288 1.175,-0.288c0.458,0 0.84,0.096 1.148,0.288c0.308,0.192 0.462,0.432 0.462,0.72l0,1.68c0.159,-0.288 0.348,-0.6 0.568,-0.936c0.22,-0.336 0.484,-0.652 0.792,-0.948c0.308,-0.296 0.66,-0.544 1.056,-0.744c0.396,-0.2 0.849,-0.3 1.36,-0.3c0.264,0 0.475,0.04 0.633,0.12c0.159,0.08 0.282,0.176 0.37,0.288c0.088,0.112 0.145,0.232 0.171,0.36c0.027,0.128 0.04,0.248 0.04,0.36c-0,0.608 -0.11,1.016 -0.33,1.224c-0.22,0.208 -0.541,0.312 -0.964,0.312Z" style="fill-rule:nonzero;"/>
</svg>
